<svg width="600" height="600" xmlns="http://www.w3.org/2000/svg" version="1.1" xml:space="preserve">
 <defs>
  <linearGradient id="SVGID_1_" x1="-0.85838" y1="0.5" x2="0.98243" y2="0.5">
   <stop offset="0" stop-color="#211EB5"/>
   <stop offset="1" stop-color="#06BFFF"/>
  </linearGradient>
  <linearGradient id="SVGID_00000123414120391748051550000014101027518698905250_" x1="-3.41925" y1="0.49999" x2="1.83575" y2="0.49999">
   <stop offset="0" stop-color="#211EB5"/>
   <stop offset="1" stop-color="#06BFFF"/>
  </linearGradient>
 </defs>
 <g>
  <title>Layer 1</title>
  <g id="svg_1">
   <g id="svg_2">
    <path class="st0" d="m533.83,273.48c0,-35.56 -9.6,-68.89 -26.39,-97.58c-13.49,-23.18 -31.67,-43.3 -53.22,-59.05c-32.14,-23.57 -71.74,-37.5 -114.55,-37.5l0,-79.35c-75.4,0 -143.77,30.68 -193.3,80.2c-24.76,24.76 -44.8,54.25 -58.69,86.95c-13.85,32.7 -21.51,68.65 -21.51,106.35c0,24.25 3.17,47.82 9.13,70.24c0.99,3.73 2.06,7.42 3.21,11.11c0.56,1.82 1.15,3.65 1.75,5.48c1.9,5.59 3.97,11.15 6.19,16.63c0.68,1.59 1.35,3.17 2.02,4.76c0.75,1.75 1.55,3.49 2.34,5.24c0.79,1.71 1.59,3.45 2.42,5.16c0.12,0.28 0.28,0.56 0.4,0.83c1.43,2.9 2.86,5.75 4.37,8.57c1.03,1.9 2.1,3.81 3.13,5.71c0.91,1.63 1.87,3.25 2.82,4.88l0,187.89l92.46,-93.62c1.77,1.09 3.53,2.19 5.32,3.24c1.43,0.87 2.94,1.71 4.41,2.54c12.02,6.79 24.6,12.62 37.66,17.54c2.66,0.99 5.4,1.98 8.1,2.9c4.96,1.67 10,3.21 15.08,4.64c3.29,0.91 6.63,1.75 10,2.54c1.43,0.36 2.9,0.67 4.33,0.99c1.94,0.44 3.89,0.83 5.83,1.19c1.67,0.36 3.37,0.67 5.12,0.95c1.63,0.32 3.29,0.6 4.96,0.83c5.36,0.83 10.75,1.51 16.23,2.06c1.63,0.16 3.25,0.28 4.88,0.4c1.71,0.16 3.41,0.28 5.12,0.36c3.29,0.2 6.59,0.32 9.92,0.4c2.1,0.04 4.21,0.08 6.31,0.08l0,-79.37c-35.56,0 -68.89,-9.6 -97.58,-26.39c-23.17,-13.49 -43.26,-31.67 -59.01,-53.22c-23.61,-32.14 -37.54,-71.75 -37.54,-114.57c0,-107.06 87.1,-194.13 194.12,-194.13l0,79.35c20.87,0 40.48,5.59 57.34,15.36c23.57,13.57 41.83,35.28 50.95,61.31c4.21,11.91 6.51,24.76 6.51,38.1c0,63.42 -51.39,114.81 -114.81,114.81l0,79.37c107.06,0 194.17,-87.11 194.17,-194.18z" fill="url(#SVGID_1_)" id="svg_3"/>
    <path d="m224.88,273.49c0,20.87 5.61,40.48 15.37,57.34c13.57,23.58 35.28,41.82 61.31,50.95c11.91,4.21 24.72,6.51 38.1,6.51l0,-65.22c27.07,-0.15 49.04,-22.21 49.04,-49.3c0,-27.09 -21.97,-49.15 -49.04,-49.3l0,-65.74c-63.38,0 -114.78,51.38 -114.78,114.76zm55.42,21.42c-11.67,0 -21.13,-9.46 -21.13,-21.13c0,-11.69 9.46,-21.15 21.13,-21.15c4.81,0 9.2,1.59 12.75,4.28c5.1,3.85 8.39,9.97 8.39,16.86c0,6.88 -3.29,12.99 -8.38,16.85c-3.54,2.71 -7.95,4.29 -12.76,4.29zm59.91,-42.27c11.69,0 21.15,9.46 21.15,21.15c0,11.67 -9.46,21.13 -21.15,21.13l-0.54,0c-11.42,-0.3 -20.59,-9.65 -20.59,-21.13c0,-11.5 9.16,-20.85 20.59,-21.13c0.18,-0.02 0.35,-0.02 0.54,-0.02z" fill="url(#SVGID_00000123414120391748051550000014101027518698905250_)" id="svg_4"/>
   </g>
  </g>
 </g>
</svg>