<?xml version="1.0" encoding="utf-8"?>
<!-- Generator: Adobe Illustrator 25.4.1, SVG Export Plug-In . SVG Version: 6.00 Build 0)  -->
<svg version="1.1" id="Layer_1" xmlns="http://www.w3.org/2000/svg" xmlns:xlink="http://www.w3.org/1999/xlink" x="0px" y="0px"
	 viewBox="0 0 1080 1080" style="enable-background:new 0 0 1080 1080;" xml:space="preserve">
<style type="text/css">
	.st0{fill:url(#SVGID_1_);}
	.st1{fill:url(#SVGID_00000087384080283362950060000001723719737437030306_);}
	.st2{fill:url(#SVGID_00000050626750631265234220000007165612067759297160_);}
	.st3{fill:url(#SVGID_00000011013020679664734440000012858491566113508484_);}
	.st4{fill:url(#SVGID_00000122708123208807002990000009724447343162075537_);}
	.st5{fill:url(#SVGID_00000042707604392305680010000002186214461677068195_);}
	.st6{fill:url(#SVGID_00000115503844299375637330000005621078922845185707_);}
	.st7{fill:url(#SVGID_00000125599190515153709410000015924504314807351206_);}
	.st8{fill:#FFFFFF;}
</style>
<g>
	<g>
		<linearGradient id="SVGID_1_" gradientUnits="userSpaceOnUse" x1="-95.2622" y1="540" x2="765.6118" y2="540">
			<stop  offset="0" style="stop-color:#211EB5"/>
			<stop  offset="1" style="stop-color:#06BFFF"/>
		</linearGradient>
		<path class="st0" d="M773.83,513.48c0-35.56-9.6-68.89-26.39-97.58c-13.49-23.18-31.67-43.3-53.22-59.05
			c-32.14-23.57-71.74-37.5-114.55-37.5V240c-75.4,0-143.77,30.68-193.3,80.2c-24.76,24.76-44.8,54.25-58.69,86.95
			c-13.85,32.7-21.51,68.65-21.51,106.35c0,24.25,3.17,47.82,9.13,70.24c0.99,3.73,2.06,7.42,3.21,11.11
			c0.56,1.82,1.15,3.65,1.75,5.48c1.9,5.59,3.97,11.15,6.19,16.63c0.68,1.59,1.35,3.17,2.02,4.76c0.75,1.75,1.55,3.49,2.34,5.24
			c0.79,1.71,1.59,3.45,2.42,5.16c0.12,0.28,0.28,0.56,0.4,0.83c1.43,2.9,2.86,5.75,4.37,8.57c1.03,1.9,2.1,3.81,3.13,5.71
			c0.91,1.63,1.87,3.25,2.82,4.88V840l92.46-93.62c1.77,1.09,3.53,2.19,5.32,3.24c1.43,0.87,2.94,1.71,4.41,2.54
			c12.02,6.79,24.6,12.62,37.66,17.54c2.66,0.99,5.4,1.98,8.1,2.9c4.96,1.67,10,3.21,15.08,4.64c3.29,0.91,6.63,1.75,10,2.54
			c1.43,0.36,2.9,0.67,4.33,0.99c1.94,0.44,3.89,0.83,5.83,1.19c1.67,0.36,3.37,0.67,5.12,0.95c1.63,0.32,3.29,0.6,4.96,0.83
			c5.36,0.83,10.75,1.51,16.23,2.06c1.63,0.16,3.25,0.28,4.88,0.4c1.71,0.16,3.41,0.28,5.12,0.36c3.29,0.2,6.59,0.32,9.92,0.4
			c2.1,0.04,4.21,0.08,6.31,0.08v-79.37c-35.56,0-68.89-9.6-97.58-26.39c-23.17-13.49-43.26-31.67-59.01-53.22
			c-23.61-32.14-37.54-71.75-37.54-114.57c0-107.06,87.1-194.13,194.12-194.13v79.35c20.87,0,40.48,5.59,57.34,15.36
			c23.57,13.57,41.83,35.28,50.95,61.31c4.21,11.91,6.51,24.76,6.51,38.1c0,63.42-51.39,114.81-114.81,114.81v79.37
			C686.72,707.66,773.83,620.55,773.83,513.48z"/>
		
			<linearGradient id="SVGID_00000123414120391748051550000014101027518698905250_" gradientUnits="userSpaceOnUse" x1="-95.2622" y1="513.5066" x2="765.6118" y2="513.5066">
			<stop  offset="0" style="stop-color:#211EB5"/>
			<stop  offset="1" style="stop-color:#06BFFF"/>
		</linearGradient>
		<path style="fill:url(#SVGID_00000123414120391748051550000014101027518698905250_);" d="M464.88,513.49
			c0,20.87,5.61,40.48,15.37,57.34c13.57,23.58,35.28,41.82,61.31,50.95c11.91,4.21,24.72,6.51,38.1,6.51v-65.22
			c27.07-0.15,49.04-22.21,49.04-49.3c0-27.09-21.97-49.15-49.04-49.3v-65.74C516.28,398.73,464.88,450.11,464.88,513.49z
			 M520.3,534.91c-11.67,0-21.13-9.46-21.13-21.13c0-11.69,9.46-21.15,21.13-21.15c4.81,0,9.2,1.59,12.75,4.28
			c5.1,3.85,8.39,9.97,8.39,16.86c0,6.88-3.29,12.99-8.38,16.85C529.52,533.33,525.11,534.91,520.3,534.91z M580.21,492.64
			c11.69,0,21.15,9.46,21.15,21.15c0,11.67-9.46,21.13-21.15,21.13h-0.54c-11.42-0.3-20.59-9.65-20.59-21.13
			c0-11.5,9.16-20.85,20.59-21.13C579.85,492.64,580.02,492.64,580.21,492.64z"/>
	</g>
</g>
</svg>
