<?xml version="1.0" encoding="utf-8"?>
<!-- Generator: Adobe Illustrator 25.4.1, SVG Export Plug-In . SVG Version: 6.00 Build 0)  -->
<svg version="1.1" id="Layer_1" xmlns="http://www.w3.org/2000/svg" xmlns:xlink="http://www.w3.org/1999/xlink" x="0px" y="0px"
	 viewBox="0 0 1080 600" style="enable-background:new 0 0 1080 600;" xml:space="preserve">
<style type="text/css">
	.st0{fill:url(#SVGID_1_);}
	.st1{fill:url(#SVGID_00000178197052314665961930000017312613146478534808_);}
	.st2{fill:url(#SVGID_00000169535694403680756960000010599926148410185859_);}
	.st3{fill:url(#SVGID_00000173158290815532813310000012668125035438310061_);}
	.st4{fill:url(#SVGID_00000052067087658606541630000003891160554247921815_);}
	.st5{fill:url(#SVGID_00000112591529538071453810000014258775572557824447_);}
	.st6{fill:url(#SVGID_00000101823697082556587970000005360141197852061591_);}
	.st7{fill:url(#SVGID_00000058560256785712062060000018097408696464275391_);}
	.st8{fill:#FFFFFF;}
</style>
<g>
	<g>
		<linearGradient id="SVGID_1_" gradientUnits="userSpaceOnUse" x1="-213.6158" y1="300" x2="453.9974" y2="300">
			<stop  offset="0" style="stop-color:#211EB5"/>
			<stop  offset="1" style="stop-color:#06BFFF"/>
		</linearGradient>
		<path class="st0" d="M460.37,279.44c0-27.57-7.45-53.43-20.47-75.68c-10.46-17.97-24.56-33.58-41.27-45.79
			c-24.92-18.28-55.63-29.08-88.84-29.08V67.35c-58.47,0-111.5,23.79-149.91,62.2c-19.2,19.2-34.75,42.07-45.52,67.43
			c-10.74,25.36-16.68,53.24-16.68,82.48c0,18.8,2.46,37.08,7.08,54.47c0.77,2.89,1.6,5.76,2.49,8.62c0.43,1.42,0.89,2.83,1.35,4.25
			c1.48,4.34,3.08,8.65,4.8,12.89c0.52,1.23,1.05,2.46,1.57,3.69c0.58,1.35,1.2,2.71,1.82,4.06c0.62,1.32,1.23,2.68,1.88,4
			c0.09,0.22,0.21,0.43,0.31,0.65c1.11,2.25,2.22,4.46,3.39,6.65c0.8,1.48,1.63,2.95,2.43,4.43c0.71,1.26,1.45,2.52,2.19,3.79v145.7
			l71.7-72.6c1.37,0.84,2.74,1.7,4.13,2.51c1.11,0.68,2.28,1.32,3.42,1.97c9.32,5.26,19.08,9.79,29.21,13.6
			c2.06,0.77,4.19,1.54,6.28,2.25c3.85,1.29,7.76,2.49,11.69,3.6c2.55,0.71,5.14,1.35,7.76,1.97c1.11,0.28,2.25,0.52,3.35,0.77
			c1.51,0.34,3.02,0.65,4.52,0.92c1.29,0.28,2.62,0.52,3.97,0.74c1.26,0.25,2.55,0.46,3.85,0.65c4.15,0.65,8.34,1.17,12.59,1.6
			c1.26,0.12,2.52,0.22,3.79,0.31c1.32,0.12,2.65,0.22,3.97,0.28c2.55,0.15,5.11,0.25,7.69,0.31c1.63,0.03,3.26,0.06,4.89,0.06
			v-61.55c-27.57,0-53.43-7.45-75.68-20.47c-17.97-10.46-33.54-24.56-45.76-41.27c-18.31-24.93-29.11-55.64-29.11-88.85
			c0-83.03,67.55-150.55,150.54-150.55v61.54c16.19,0,31.39,4.34,44.47,11.91c18.28,10.53,32.44,27.36,39.52,47.55
			c3.26,9.23,5.05,19.2,5.05,29.54c0,49.18-39.85,89.03-89.03,89.03v61.55C392.82,430.02,460.37,362.47,460.37,279.44z"/>
		
			<linearGradient id="SVGID_00000083050613855570184050000018040289761788420511_" gradientUnits="userSpaceOnUse" x1="-213.6158" y1="279.4542" x2="453.9974" y2="279.4542">
			<stop  offset="0" style="stop-color:#211EB5"/>
			<stop  offset="1" style="stop-color:#06BFFF"/>
		</linearGradient>
		<path style="fill:url(#SVGID_00000083050613855570184050000018040289761788420511_);" d="M220.78,279.44
			c0,16.18,4.35,31.39,11.92,44.47c10.53,18.28,27.36,32.44,47.54,39.51c9.24,3.26,19.17,5.05,29.55,5.05v-50.57
			c21-0.12,38.03-17.23,38.03-38.24s-17.04-38.12-38.03-38.24v-50.98C260.64,190.44,220.78,230.29,220.78,279.44z M263.76,296.06
			c-9.05,0-16.38-7.34-16.38-16.38c0-9.06,7.34-16.4,16.38-16.4c3.73,0,7.13,1.23,9.89,3.32c3.96,2.99,6.51,7.73,6.51,13.08
			c0,5.34-2.55,10.08-6.5,13.06C270.91,294.82,267.48,296.06,263.76,296.06z M310.21,263.27c9.06,0,16.4,7.34,16.4,16.4
			c0,9.05-7.34,16.38-16.4,16.38h-0.42c-8.86-0.23-15.96-7.48-15.96-16.38c0-8.92,7.1-16.17,15.96-16.38
			C309.94,263.27,310.07,263.27,310.21,263.27z"/>
	</g>
	<g>
		
			<linearGradient id="SVGID_00000132786564506528457170000006872892873681005452_" gradientUnits="userSpaceOnUse" x1="233.8843" y1="279.6652" x2="934.5993" y2="279.6652">
			<stop  offset="0" style="stop-color:#211EB5"/>
			<stop  offset="1" style="stop-color:#06BFFF"/>
		</linearGradient>
		<path style="fill:url(#SVGID_00000132786564506528457170000006872892873681005452_);" d="M527.82,279.67
			c0-44.1,33.86-75.67,79.43-75.67c25.29,0,46.4,9.2,60.2,25.92l-21.74,20.07c-9.83-11.29-22.16-17.14-36.79-17.14
			c-27.38,0-46.82,19.23-46.82,46.82c0,27.59,19.44,46.82,46.82,46.82c14.63,0,26.96-5.85,36.79-17.35l21.74,20.07
			c-13.8,16.93-34.91,26.13-60.41,26.13C561.68,355.33,527.82,323.77,527.82,279.67z"/>
		
			<linearGradient id="SVGID_00000036970173683494519230000009975124042997605289_" gradientUnits="userSpaceOnUse" x1="233.8843" y1="279.6652" x2="934.5993" y2="279.6652">
			<stop  offset="0" style="stop-color:#211EB5"/>
			<stop  offset="1" style="stop-color:#06BFFF"/>
		</linearGradient>
		<path style="fill:url(#SVGID_00000036970173683494519230000009975124042997605289_);" d="M739.02,206.51v146.32h-33.86V233.68
			h-29.26v-27.17H739.02z"/>
		
			<linearGradient id="SVGID_00000181766837348695791350000011737260069555857830_" gradientUnits="userSpaceOnUse" x1="233.8843" y1="278.411" x2="934.5993" y2="278.411">
			<stop  offset="0" style="stop-color:#211EB5"/>
			<stop  offset="1" style="stop-color:#06BFFF"/>
		</linearGradient>
		<path style="fill:url(#SVGID_00000181766837348695791350000011737260069555857830_);" d="M870.52,325.23v27.59H759.94v-21.95
			l56.44-53.3c12.96-12.33,15.26-19.86,15.26-26.97c0-11.5-7.94-18.18-23.41-18.18c-12.54,0-23.2,4.81-30.31,14.63l-24.66-15.88
			c11.29-16.51,31.77-27.18,58.11-27.18c32.61,0,54.35,16.72,54.35,43.27c0,14.21-3.97,27.17-24.46,46.19l-33.65,31.77H870.52z"/>
		
			<linearGradient id="SVGID_00000150071093906146089010000016188123415412003503_" gradientUnits="userSpaceOnUse" x1="233.8843" y1="296.5966" x2="934.5993" y2="296.5966">
			<stop  offset="0" style="stop-color:#211EB5"/>
			<stop  offset="1" style="stop-color:#06BFFF"/>
		</linearGradient>
		<path style="fill:url(#SVGID_00000150071093906146089010000016188123415412003503_);" d="M880.51,342.37l10.87-23.41
			c10.03,6.48,25.29,10.87,39.09,10.87c15.05,0,20.69-3.97,20.69-10.24c0-18.39-67.93,0.42-67.93-44.52
			c0-21.32,19.23-36.37,52.05-36.37c15.47,0,32.61,3.55,43.27,9.83l-10.87,23.2c-11.08-6.27-22.16-8.36-32.4-8.36
			c-14.63,0-20.9,4.6-20.9,10.45c0,19.23,67.93,0.63,67.93,44.94c0,20.9-19.44,35.74-53.09,35.74
			C910.19,354.5,890.96,349.27,880.51,342.37z"/>
	</g>
</g>
</svg>
